<?xml version="1.0" encoding="UTF-8" standalone="no"?>
<svg
   viewBox="0 0 1140 380"
   version="1.1"
   id="svg26"
   sodipodi:docname="twitch_purple.svg"
   inkscape:version="1.1 (c68e22c387, 2021-05-23)"
   xmlns:inkscape="http://www.inkscape.org/namespaces/inkscape"
   xmlns:sodipodi="http://sodipodi.sourceforge.net/DTD/sodipodi-0.dtd"
   xmlns="http://www.w3.org/2000/svg"
   xmlns:svg="http://www.w3.org/2000/svg">
  <sodipodi:namedview
     id="namedview28"
     pagecolor="#505050"
     bordercolor="#ffffff"
     borderopacity="1"
     inkscape:pageshadow="0"
     inkscape:pageopacity="0"
     inkscape:pagecheckerboard="1"
     showgrid="false"
     inkscape:zoom="0.92807018"
     inkscape:cx="569.46125"
     inkscape:cy="190.17958"
     inkscape:window-width="1920"
     inkscape:window-height="1017"
     inkscape:window-x="1912"
     inkscape:window-y="-8"
     inkscape:window-maximized="1"
     inkscape:current-layer="svg26" />
  <defs
     id="defs4">
    <style
       id="style2">.cls-1{fill:#fff;}.cls-2{fill:#9146ff;}</style>
  </defs>
  <title
     id="title6">Asset 14</title>
  <g
     id="Layer_2"
     data-name="Layer 2">
    <g
       id="Layer_1-2"
       data-name="Layer 1">
      <path
         class="cls-2"
         d="M1090,70h-50V0H930.21L879.72,70H790l-30,30V70H690V0H470V70H160.5L110,0H0V240L140,380H280V340l40,40H590V340l40,40H760V340l40,40h250l90-90V120ZM170,170H100v20h70v80H60L20,230V20h80V90h70ZM470,270H230l-40-40V90h80V190h20V90h80V190h20V90h80Zm100,0H490V90h80Zm0-200H490V20h80ZM740,170H670v20h70v80H630l-40-40V20h80V90h70Zm180,0H840v20h80v80H800l-40-40V130l40-40H920Zm200,100h-80V170h-20V270H940V20h80V90h60l40,40Z"
         id="path22" />
    </g>
  </g>
</svg>
