<?xml version="1.0" encoding="UTF-8" standalone="no"?>
<svg
   width="335"
   height="270"
   version="1.0"
   id="svg46"
   sodipodi:docname="orangelaser.svg"
   inkscape:version="1.1 (c68e22c387, 2021-05-23)"
   xmlns:inkscape="http://www.inkscape.org/namespaces/inkscape"
   xmlns:sodipodi="http://sodipodi.sourceforge.net/DTD/sodipodi-0.dtd"
   xmlns:xlink="http://www.w3.org/1999/xlink"
   xmlns="http://www.w3.org/2000/svg"
   xmlns:svg="http://www.w3.org/2000/svg"
   xmlns:rdf="http://www.w3.org/1999/02/22-rdf-syntax-ns#"
   xmlns:cc="http://creativecommons.org/ns#"
   xmlns:dc="http://purl.org/dc/elements/1.1/">
  <metadata
     id="metadata50">
    <rdf:RDF>
      <cc:Work
         rdf:about="">
        <dc:format>image/svg+xml</dc:format>
        <dc:type
           rdf:resource="http://purl.org/dc/dcmitype/StillImage" />
      </cc:Work>
    </rdf:RDF>
  </metadata>
  <sodipodi:namedview
     pagecolor="#ffffff"
     bordercolor="#666666"
     borderopacity="1"
     objecttolerance="10"
     gridtolerance="10"
     guidetolerance="10"
     inkscape:pageopacity="0"
     inkscape:pageshadow="2"
     inkscape:window-width="1920"
     inkscape:window-height="1017"
     id="namedview48"
     showgrid="false"
     showguides="true"
     inkscape:zoom="1.4142136"
     inkscape:cx="165.10943"
     inkscape:cy="136.82516"
     inkscape:window-x="1912"
     inkscape:window-y="-8"
     inkscape:window-maximized="1"
     inkscape:current-layer="g44"
     inkscape:pagecheckerboard="1">
    <inkscape:grid
       type="xygrid"
       id="grid5096"
       originx="-150"
       originy="-140" />
  </sodipodi:namedview>
  <defs
     id="defs10">
    <g
       id="raypair">
      <path
         d="M -2,0 -7,-135 H 7 L 2,0"
         fill="#000000"
         stroke="none"
         id="path2" />
      <path
         d="M -2,0 -5,-90 H 5 L 2,0"
         fill="#000000"
         stroke="none"
         transform="rotate(15)"
         id="path4" />
    </g>
    <g
       id="triangle">
      <path
         d="M 0,-330 280,160 H -280 Z"
         stroke-linejoin="round"
         id="path7" />
    </g>
  </defs>
  <g
     transform="translate(160,230)"
     id="g44">
    <circle
       cx="-25.000021"
       cy="-95"
       r="45"
       id="circle14"
       style="fill:#000000;stroke:none" />
    <use
       xlink:href="#raypair"
       id="use16"
       transform="translate(-24.999999,-95)"
       x="0"
       y="0"
       width="100%"
       height="100%" />
    <use
       xlink:href="#raypair"
       transform="rotate(30,164.77241,-94.15068)"
       id="use18"
       x="0"
       y="0"
       width="100%"
       height="100%" />
    <use
       xlink:href="#raypair"
       transform="rotate(60,69.772412,-69.150637)"
       id="use20"
       x="0"
       y="0"
       width="100%"
       height="100%" />
    <use
       xlink:href="#raypair"
       transform="rotate(90,35.000001,-60.000001)"
       id="use22"
       x="0"
       y="0"
       width="100%"
       height="100%" />
    <use
       xlink:href="#raypair"
       transform="rotate(120,14.924139,-54.716891)"
       id="use24"
       x="0"
       y="0"
       width="100%"
       height="100%" />
    <use
       xlink:href="#raypair"
       transform="rotate(150,0.2275879,-50.849362)"
       id="use26"
       x="0"
       y="0"
       width="100%"
       height="100%" />
    <use
       xlink:href="#raypair"
       transform="rotate(180,-12.499999,-47.5)"
       id="use28"
       x="0"
       y="0"
       width="100%"
       height="100%" />
    <use
       xlink:href="#raypair"
       transform="rotate(-150,-25.227585,-44.150639)"
       id="use30"
       x="0"
       y="0"
       width="100%"
       height="100%" />
    <use
       xlink:href="#raypair"
       transform="rotate(-120,-39.924137,-40.28311)"
       id="use32"
       x="0"
       y="0"
       width="100%"
       height="100%" />
    <use
       xlink:href="#raypair"
       transform="rotate(-90,-60.000001,-35)"
       id="use34"
       x="0"
       y="0"
       width="100%"
       height="100%" />
    <use
       xlink:href="#raypair"
       transform="rotate(-60,-94.772412,-25.84936)"
       id="use36"
       x="0"
       y="0"
       width="100%"
       height="100%" />
    <use
       xlink:href="#raypair"
       transform="rotate(-30,-189.77242,-0.8493613)"
       id="use38"
       x="0"
       y="0"
       width="100%"
       height="100%" />
    <path
       d="M -24.999999,-95 H 175"
       id="path40"
       inkscape:connector-curvature="0"
       style="fill:none;stroke:#000000;stroke-width:14" />
    <path
       style="fill:#ff5d00;fill-opacity:1;stroke-width:0.59322"
       d="m 278.54087,402.35169 c 0.20027,-4.15996 0.98096,-24.38135 1.73487,-44.93644 1.01931,-27.79096 1.19771,-37.48462 0.69581,-37.80871 -0.37122,-0.23971 -1.53744,-0.43992 -2.59161,-0.44492 -1.50108,-0.007 -1.98616,0.28032 -2.2372,1.32567 -0.1763,0.73411 -2.41913,10.35744 -4.98407,21.38519 -2.56493,11.02774 -4.81568,20.20261 -5.00165,20.38857 -0.40015,0.40016 -8.6994,-1.5557 -8.6994,-2.05014 0,-0.18659 2.56675,-8.76694 5.70389,-19.06746 3.13714,-10.30051 6.05401,-19.88453 6.48195,-21.29782 l 0.77805,-2.56962 -2.01374,-0.8414 c -1.10755,-0.46276 -2.24022,-0.84139 -2.51704,-0.84139 -0.27681,0 -9.94308,17.84133 -21.48059,39.6474 l -20.97728,39.64742 -5.75509,-3.28943 -5.75509,-3.28943 1.32165,-2.09951 c 44.77937,-71.13414 46.68206,-74.27019 45.58402,-75.13222 -0.59076,-0.46379 -1.57607,-1.13371 -2.18958,-1.48871 -1.29608,-0.74998 0.2682,-2.25519 -18.41593,17.72058 -7.0953,7.5858 -13.08797,13.79237 -13.31705,13.79237 -0.22907,0 -1.72318,-1.32663 -3.32024,-2.94808 -2.90102,-2.9453 -2.90267,-2.94927 -1.75736,-4.21933 0.63051,-0.69919 7.88685,-7.56326 16.1252,-15.25349 8.23835,-7.69023 14.97881,-14.16443 14.97881,-14.38711 0,-0.22268 -0.58357,-1.17498 -1.29682,-2.11622 -0.71326,-0.94125 -1.35112,-1.79308 -1.41748,-1.89296 -0.0664,-0.0999 -15.16605,9.26727 -33.55487,20.8159 -18.38882,11.54864 -35.5808,22.34195 -38.2044,23.98515 l -4.77017,2.98763 -3.2876,-5.75188 -3.2876,-5.75189 39.64676,-20.96661 c 21.80572,-11.53164 39.64676,-21.19842 39.64676,-21.48173 0,-0.28331 -0.38258,-1.43074 -0.85016,-2.54984 l -0.85017,-2.03472 -2.56085,0.8378 c -7.32367,2.396 -40.35736,12.23632 -40.5109,12.06768 -0.28606,-0.3142 -2.5375,-8.79792 -2.33481,-8.79792 0.30373,0 41.38798,-9.5282 42.50943,-9.85873 1.07802,-0.31773 1.45922,-3.41407 0.58414,-4.74463 -0.31902,-0.48506 -12.28135,-0.21341 -44.63075,1.01352 -24.3072,0.92191 -44.5286,1.68727 -44.93644,1.70082 -0.55158,0.0183 -0.74153,-1.71937 -0.74153,-6.78354 v -6.80814 l 6.37712,0.32229 c 3.50742,0.17726 23.72192,0.95753 44.92112,1.73393 29.77341,1.09041 38.64665,1.25014 38.99515,0.70195 0.24814,-0.39032 0.45525,-1.55285 0.46024,-2.5834 l 0.009,-1.87372 -7.56356,-1.77571 c -4.15996,-0.97663 -13.70339,-3.18466 -21.20763,-4.90671 -7.50424,-1.72205 -13.87788,-3.33015 -14.16366,-3.57355 -0.47767,-0.40685 1.22013,-8.83557 1.77976,-8.83557 0.2199,0 40.40156,12.1577 42.22601,12.77626 0.67632,0.22929 2.4884,-2.90841 2.4884,-4.30878 0,-0.25791 -17.851,-9.91092 -39.66889,-21.45112 l -39.66889,-20.98219 3.32212,-5.74375 3.32211,-5.74374 21.66457,13.60831 c 11.91551,7.48456 29.07181,18.26104 38.12511,23.94772 l 16.46053,10.33942 1.46564,-1.66598 c 0.80609,-0.91629 1.47369,-1.93293 1.48354,-2.2592 0.01,-0.32627 -7.29294,-7.40043 -16.22843,-15.72034 l -16.24633,-15.12712 3.02775,-3.11441 c 1.66527,-1.71292 3.21498,-3.1144 3.44382,-3.1144 0.22883,0 7.15367,7.20762 15.38853,16.01695 8.23485,8.80932 15.26437,16.00851 15.62115,15.9982 0.35678,-0.0103 1.38065,-0.66304 2.27528,-1.4505 l 1.62658,-1.43175 -23.95563,-38.13297 -23.95564,-38.13298 5.62219,-3.19542 c 3.0922,-1.75748 5.83746,-2.96504 6.10057,-2.68347 0.26311,0.28156 9.75492,18.06384 21.09291,39.51617 12.33674,23.34204 20.94945,39.00424 21.44861,39.00424 1.20132,0 4.41827,-1.75298 4.12876,-2.24984 -0.49085,-0.84239 -12.9437,-42.3393 -12.74912,-42.48417 0.64656,-0.48137 8.31761,-2.21962 8.59061,-1.94661 0.28678,0.28678 3.03201,11.74398 8.77176,36.60902 l 1.57781,6.83518 2.35004,-0.22412 c 1.29252,-0.12326 2.45304,-0.39612 2.57893,-0.60636 0.21276,-0.35532 -2.06641,-65.75254 -2.8819,-82.69157 L 278.17673,140 h 6.81903 6.81901 l -0.3049,5.7839 c -0.73763,13.99231 -3.13526,84.01815 -2.8903,84.41452 0.14921,0.24143 1.30943,0.53796 2.57826,0.65897 l 2.30696,0.22 4.92371,-21.2086 c 2.70804,-11.66473 5.11394,-21.5164 5.34645,-21.89259 0.31153,-0.50407 1.49235,-0.40169 4.48914,0.38924 2.23653,0.59027 4.14899,1.13273 4.24992,1.20547 0.10093,0.0727 -2.64779,9.43739 -6.10826,20.81033 -3.46048,11.37294 -6.41676,21.10119 -6.56953,21.61833 -0.19919,0.67428 0.3968,1.16286 2.10697,1.72727 1.3116,0.43287 2.49257,0.67713 2.62436,0.54281 0.13179,-0.13433 9.49453,-17.7294 20.80609,-39.10016 11.31155,-21.37076 20.79137,-39.08834 21.06625,-39.37239 0.75578,-0.78097 11.4194,5.50542 11.03557,6.50566 -0.17183,0.44779 -10.89271,17.67229 -23.82418,38.27667 l -23.51176,37.4625 1.68871,1.38143 c 0.9288,0.75978 1.96194,1.39103 2.29587,1.40276 0.33394,0.0118 7.3526,-7.18629 15.59703,-15.99561 8.24444,-8.80933 15.18888,-16.01695 15.4321,-16.01695 0.24322,0 1.75347,1.33127 3.35611,2.95837 l 2.91388,2.95837 -1.74975,1.83629 c -0.96236,1.00995 -8.22326,7.87586 -16.13534,15.25756 -7.91207,7.38171 -14.37599,13.69976 -14.36426,14.04009 0.0117,0.34035 0.64432,1.3804 1.40573,2.31124 l 1.38439,1.69242 37.47513,-23.52145 c 20.61133,-12.93681 37.82368,-23.65521 38.24968,-23.81868 0.96717,-0.37114 7.26065,10.30435 6.51227,11.04659 -0.28305,0.28073 -17.9998,9.75786 -39.37056,21.06029 -21.37077,11.30244 -38.96584,20.65958 -39.10017,20.79366 -0.13432,0.13406 0.10994,1.31689 0.54281,2.6285 0.56441,1.71017 1.053,2.30616 1.72728,2.10697 0.51714,-0.15277 10.24538,-3.10906 21.61832,-6.56953 11.37295,-3.46048 20.7376,-6.20919 20.81033,-6.10826 0.65626,0.91058 2.15007,8.37582 1.74549,8.723 -0.28712,0.24639 -10.17408,2.67319 -21.97102,5.39291 -16.30258,3.75846 -21.37585,5.13554 -21.14416,5.73931 0.25253,0.65809 13.62638,0.79438 77.95323,0.79438 h 77.64839 v 6.82203 6.82204 h -77.64839 c -66.45075,0 -77.69491,0.12122 -77.97095,0.84056 -0.24807,0.64643 1.27855,1.2102 6.61026,2.44107 25.02068,5.7763 36.41949,8.50731 36.70665,8.79447 0.27301,0.27301 -1.46523,7.94406 -1.94661,8.59062 -0.14487,0.19457 -41.64177,-12.25827 -42.48417,-12.74912 -0.49488,-0.28837 -2.24984,2.9253 -2.24984,4.11991 0,0.48733 15.97075,9.27081 39.00424,21.45127 21.45233,11.34431 39.23461,20.8401 39.51618,21.10175 0.28157,0.26165 -0.92401,3.00222 -2.67907,6.09015 l -3.191,5.61443 -38.20046,-23.99075 -38.20047,-23.99076 -1.36608,1.66947 c -0.75135,0.91821 -1.37569,1.96138 -1.38743,2.31816 -0.0117,0.35677 7.1863,7.38629 15.99562,15.62114 8.80932,8.23486 16.01695,15.1597 16.01695,15.38854 0,0.22883 -1.40149,1.77956 -3.11441,3.44607 l -3.11441,3.03001 -15.12711,-16.24272 c -8.31992,-8.9335 -15.39407,-16.2373 -15.72034,-16.23068 -0.32627,0.007 -1.34443,0.67288 -2.26257,1.48056 l -1.66935,1.46853 19.93676,31.74911 c 10.96521,17.46201 21.74667,34.615 23.95879,38.11776 l 4.02203,6.36865 -5.75144,3.32657 -5.75144,3.32656 -20.98219,-39.66889 c -11.54021,-21.81789 -21.19321,-39.66888 -21.45113,-39.66888 -1.40037,0 -4.53806,1.81208 -4.30877,2.48839 0.61856,1.82446 12.77626,42.00612 12.77626,42.22602 0,0.55968 -8.42875,2.25743 -8.83588,1.77975 -0.24357,-0.28577 -1.8545,-6.65942 -3.57984,-14.16365 -1.72533,-7.50424 -3.93322,-17.04767 -4.9064,-21.20763 l -1.76943,-7.56356 -1.87371,0.009 c -1.03055,0.005 -2.19828,0.21531 -2.59495,0.46737 -0.56359,0.35813 -0.40877,9.01029 0.70842,39.58838 0.78629,21.52154 1.56684,41.73283 1.73454,44.91398 l 0.3049,5.78389 h -6.81901 -6.81903 l 0.36414,-7.56355 z"
       id="path1393"
       transform="translate(-310,-370)" />
  </g>
</svg>
